<svg width="295" height="63" viewBox="0 0 295 63" fill="none" xmlns="http://www.w3.org/2000/svg">
<path d="M23.0272 1.74506H30.9495V42.3035H23.0272V25.5055H7.99264V42.3035H0V1.74506H7.99264V17.8556H23.0449V1.74506H23.0272Z" fill="#1E336A"/>
<path d="M44.4348 30.8819C45.4383 34.513 48.1494 36.3285 52.5859 36.3285C55.4379 36.3285 57.6033 35.359 59.0645 33.4377L65.0854 36.9102C62.2334 41.0347 58.0258 43.1147 52.4626 43.1147C47.6741 43.1147 43.8362 41.6693 40.949 38.7609C38.0618 35.8702 36.6006 32.2215 36.6006 27.8149C36.6006 23.4435 38.0266 19.8125 40.8786 16.8865C43.7306 13.9781 47.3924 12.5151 51.8817 12.5151C56.1245 12.5151 59.6278 13.9781 62.3918 16.9218C65.1558 19.8654 66.529 23.4964 66.529 27.8149C66.529 28.7844 66.4409 29.8067 66.2473 30.8819H44.4348ZM44.3292 25.1004H59.0821C58.6596 23.1263 57.7793 21.6633 56.4413 20.6938C55.1034 19.7244 53.5893 19.2484 51.8993 19.2484C49.8923 19.2484 48.2374 19.7596 46.9171 20.7819C45.6143 21.8043 44.7517 23.232 44.3292 25.1004Z" fill="#1E336A"/>
<path d="M93.4996 13.3257H100.964V42.286H93.4996V38.8665C91.2638 41.6867 88.1125 43.0968 84.0634 43.0968C80.2079 43.0968 76.8982 41.6162 74.1342 38.6726C71.3703 35.7113 69.9971 32.0979 69.9971 27.8147C69.9971 23.5314 71.3703 19.9004 74.1342 16.9568C76.8982 13.9955 80.2079 12.5325 84.0634 12.5325C88.1125 12.5325 91.2638 13.9426 93.4996 16.7629V13.3257ZM79.7326 33.7019C81.229 35.2354 83.148 35.9933 85.4542 35.9933C87.7604 35.9933 89.6794 35.2354 91.211 33.7019C92.7426 32.1684 93.4996 30.2119 93.4996 27.8147C93.4996 25.4175 92.7426 23.4609 91.211 21.9274C89.6794 20.3939 87.7604 19.636 85.4542 19.636C83.148 19.636 81.229 20.3939 79.7326 21.9274C78.2362 23.4609 77.4792 25.4175 77.4792 27.8147C77.4792 30.2119 78.2362 32.1684 79.7326 33.7019Z" fill="#1E336A"/>
<path d="M107.742 42.3035V0H115.207V42.2859H107.742V42.3035Z" fill="#1E336A"/>
<path d="M138.586 20.517H132.037V32.5735C132.037 33.5783 132.284 34.3186 132.794 34.7769C133.287 35.2351 134.026 35.4995 134.995 35.5524C135.963 35.6053 137.16 35.6053 138.586 35.5172V42.3033C133.463 42.885 129.836 42.3915 127.741 40.858C125.646 39.3069 124.59 36.5571 124.59 32.5735V20.517H119.555V13.3255H124.59V7.47347L132.037 5.21729V13.3255H138.568V20.517H138.586Z" fill="#1E336A"/>
<path d="M159.941 12.5148C163.109 12.5148 165.715 13.5724 167.775 15.7052C169.835 17.838 170.873 20.764 170.873 24.5184V42.3035H163.409V25.4526C163.409 23.5137 162.881 22.0507 161.842 21.0284C160.803 20.0061 159.412 19.4949 157.67 19.4949C155.733 19.4949 154.201 20.0942 153.039 21.2928C151.877 22.4914 151.297 24.2893 151.297 26.6865V42.3211H143.832V1.74506H151.297V16.5689C153.127 13.8721 155.997 12.5148 159.941 12.5148Z" fill="#1E336A"/>
<path d="M206.223 21.9968C206.223 28.7106 200.757 34.1531 194.014 34.1531C187.271 34.1531 181.805 28.7106 181.805 21.9968C181.805 15.2831 187.271 9.84058 194.014 9.84058C196.353 9.84058 198.538 10.4954 200.395 11.631L201.152 9.10276L201.233 8.83363C201.683 7.35198 201.891 6.66328 202.392 5.08285C202.509 4.69283 202.645 4.26324 202.81 3.74761C200.149 2.47341 197.165 1.75952 194.014 1.75952C182.789 1.75952 173.689 10.8201 173.689 21.9968C173.689 33.1736 182.789 42.2342 194.014 42.2342C205.24 42.2342 214.34 33.1736 214.34 21.9968C214.34 20.1554 214.093 18.3714 213.63 16.6758C213.281 16.7612 212.837 16.8676 212.159 17.0303L205.732 18.5723C206.052 19.6585 206.223 20.8077 206.223 21.9968Z" fill="#00BBF2"/>
<path d="M197.603 30.291C194.498 24.3115 187.658 20.0037 184.424 18.6375C188.143 18.3964 194.935 20.5503 196.552 22.0933C201.807 12.0472 210.944 3.36733 214.34 1.75995C211.429 5.51051 205.78 13.4568 205.123 14.6994C204.314 16.2264 199.948 23.7811 197.603 30.291Z" fill="#1F9642"/>
<path d="M2.2437 58.4081H7.32943V59.3953H1.19664V48.9247H7.25464V49.9119H2.2437V53.6215H6.88069V54.6088H2.2437V58.4081ZM19.0457 51.7368C19.8833 51.7368 20.5564 52.0061 21.065 52.5445C21.5835 53.083 21.8428 53.811 21.8428 54.7284V59.3953H20.8556V54.7284C20.8556 54.0802 20.6861 53.5816 20.347 53.2326C20.0179 52.8736 19.5792 52.6941 19.0307 52.6941C18.4124 52.6941 17.9088 52.9035 17.5199 53.3224C17.141 53.7312 16.9515 54.3744 16.9515 55.252V59.3953H15.9643V54.7284C15.9643 54.0703 15.8048 53.5667 15.4856 53.2177C15.1765 52.8686 14.7527 52.6941 14.2142 52.6941C13.6159 52.6941 13.1073 52.9035 12.6885 53.3224C12.2697 53.7412 12.0603 54.3844 12.0603 55.252V59.3953H11.073V51.9163H12.0603V53.0082C12.5987 52.1606 13.3616 51.7368 14.3488 51.7368C15.4258 51.7368 16.1837 52.1905 16.6225 53.098C17.1609 52.1905 17.9687 51.7368 19.0457 51.7368ZM29.8552 51.7368C30.9222 51.7368 31.8296 52.1158 32.5775 52.8736C33.3354 53.6315 33.7143 54.5589 33.7143 55.6558C33.7143 56.7527 33.3354 57.6801 32.5775 58.438C31.8296 59.1959 30.9222 59.5748 29.8552 59.5748C28.5289 59.5748 27.5217 59.0264 26.8336 57.9294V62.3869H25.8464V51.9163H26.8336V53.3822C27.5217 52.2853 28.5289 51.7368 29.8552 51.7368ZM27.6862 57.7649C28.2547 58.3333 28.9527 58.6175 29.7804 58.6175C30.6081 58.6175 31.3061 58.3333 31.8745 57.7649C32.4429 57.1865 32.7271 56.4835 32.7271 55.6558C32.7271 54.8281 32.4429 54.1301 31.8745 53.5617C31.3061 52.9833 30.6081 52.6941 29.7804 52.6941C28.9527 52.6941 28.2547 52.9833 27.6862 53.5617C27.1178 54.1301 26.8336 54.8281 26.8336 55.6558C26.8336 56.4835 27.1178 57.1865 27.6862 57.7649ZM43.7174 58.453C42.9595 59.2009 42.0321 59.5748 40.9352 59.5748C39.8383 59.5748 38.9059 59.2009 38.1381 58.453C37.3802 57.6951 37.0013 56.7627 37.0013 55.6558C37.0013 54.5489 37.3802 53.6215 38.1381 52.8736C38.9059 52.1158 39.8383 51.7368 40.9352 51.7368C42.0321 51.7368 42.9595 52.1158 43.7174 52.8736C44.4853 53.6215 44.8692 54.5489 44.8692 55.6558C44.8692 56.7627 44.4853 57.6951 43.7174 58.453ZM38.8411 57.7649C39.4095 58.3333 40.1075 58.6175 40.9352 58.6175C41.7629 58.6175 42.4609 58.3333 43.0293 57.7649C43.5977 57.1865 43.8819 56.4835 43.8819 55.6558C43.8819 54.8281 43.5977 54.1301 43.0293 53.5617C42.4609 52.9833 41.7629 52.6941 40.9352 52.6941C40.1075 52.6941 39.4095 52.9833 38.8411 53.5617C38.2727 54.1301 37.9885 54.8281 37.9885 55.6558C37.9885 56.4835 38.2727 57.1865 38.8411 57.7649ZM57.3279 51.9163H58.3451L56.0415 59.3953H54.9645L53.035 53.3672L51.1054 59.3953H50.0284L47.7249 51.9163H48.742L50.5818 58.1239L52.5413 51.9163H53.5286L55.4881 58.1239L57.3279 51.9163ZM65.0911 51.7368C66.198 51.7368 67.0905 52.1307 67.7686 52.9185C68.4567 53.6963 68.8007 54.6187 68.8007 55.6857C68.8007 55.7954 68.7908 55.95 68.7708 56.1494H62.2042C62.304 56.9073 62.6231 57.5106 63.1616 57.9594C63.71 58.3981 64.3831 58.6175 65.1809 58.6175C65.7493 58.6175 66.2379 58.5028 66.6468 58.2735C67.0656 58.0341 67.3797 57.725 67.5891 57.3461L68.4567 57.8546C68.1276 58.3832 67.6789 58.802 67.1105 59.1111C66.5421 59.4203 65.8939 59.5748 65.1659 59.5748C63.9892 59.5748 63.0319 59.2059 62.294 58.4679C61.5561 57.73 61.1871 56.7926 61.1871 55.6558C61.1871 54.539 61.5511 53.6066 62.279 52.8587C63.007 52.1108 63.9444 51.7368 65.0911 51.7368ZM65.0911 52.6941C64.3133 52.6941 63.6602 52.9285 63.1316 53.3972C62.6131 53.8559 62.304 54.4542 62.2042 55.1921H67.7836C67.6839 54.4043 67.3797 53.7911 66.8712 53.3523C66.3626 52.9135 65.7692 52.6941 65.0911 52.6941ZM73.4524 53.1578C73.9111 52.2504 74.6989 51.7966 75.8158 51.7966V52.754C75.1377 52.754 74.5743 52.9534 74.1255 53.3523C73.6768 53.7512 73.4524 54.3794 73.4524 55.237V59.3953H72.4652V51.9163H73.4524V53.1578ZM80.2651 50.1213C80.1255 50.261 79.956 50.3308 79.7566 50.3308C79.5571 50.3308 79.3876 50.261 79.248 50.1213C79.1084 49.9817 79.0386 49.8122 79.0386 49.6128C79.0386 49.4133 79.1084 49.2438 79.248 49.1042C79.3876 48.9646 79.5571 48.8948 79.7566 48.8948C79.956 48.8948 80.1255 48.9646 80.2651 49.1042C80.4047 49.2438 80.4745 49.4133 80.4745 49.6128C80.4745 49.8122 80.4047 49.9817 80.2651 50.1213ZM79.2629 59.3953V51.9163H80.2502V59.3953H79.2629ZM87.9394 51.7368C88.8468 51.7368 89.5598 52.016 90.0784 52.5745C90.6069 53.1229 90.8712 53.8658 90.8712 54.8032V59.3953H89.8839V54.8032C89.8839 54.1351 89.7044 53.6165 89.3454 53.2476C88.9964 52.8786 88.4978 52.6941 87.8496 52.6941C87.1317 52.6941 86.5483 52.9235 86.0996 53.3822C85.6508 53.8309 85.4264 54.529 85.4264 55.4763V59.3953H84.4392V51.9163H85.4264V53.083C85.9849 52.1856 86.8225 51.7368 87.9394 51.7368ZM101.306 51.9163H102.293V59.0962C102.293 60.1731 101.924 61.0208 101.186 61.639C100.449 62.2573 99.566 62.5664 98.5389 62.5664C96.7838 62.5664 95.6022 61.9581 94.9939 60.7415L95.8614 60.2479C96.3102 61.1554 97.2027 61.6091 98.5389 61.6091C99.3965 61.6091 100.07 61.3798 100.558 60.921C101.057 60.4723 101.306 59.864 101.306 59.0962V57.9294C100.618 59.0264 99.6109 59.5748 98.2846 59.5748C97.2176 59.5748 96.3052 59.1959 95.5473 58.438C94.7994 57.6801 94.4255 56.7527 94.4255 55.6558C94.4255 54.5589 94.7994 53.6315 95.5473 52.8736C96.3052 52.1158 97.2176 51.7368 98.2846 51.7368C99.6109 51.7368 100.618 52.2853 101.306 53.3822V51.9163ZM96.2653 57.7649C96.8337 58.3333 97.5317 58.6175 98.3594 58.6175C99.1871 58.6175 99.8851 58.3333 100.454 57.7649C101.022 57.1865 101.306 56.4835 101.306 55.6558C101.306 54.8281 101.022 54.1301 100.454 53.5617C99.8851 52.9833 99.1871 52.6941 98.3594 52.6941C97.5317 52.6941 96.8337 52.9833 96.2653 53.5617C95.6969 54.1301 95.4127 54.8281 95.4127 55.6558C95.4127 56.4835 95.6969 57.1865 96.2653 57.7649ZM119.192 48.9247H120.239V59.3953H119.192V54.504H113.508V59.3953H112.461V48.9247H113.508V53.5168H119.192V48.9247ZM128.028 51.7368C129.135 51.7368 130.027 52.1307 130.705 52.9185C131.393 53.6963 131.737 54.6187 131.737 55.6857C131.737 55.7954 131.727 55.95 131.707 56.1494H125.141C125.24 56.9073 125.56 57.5106 126.098 57.9594C126.647 58.3981 127.32 58.6175 128.117 58.6175C128.686 58.6175 129.174 58.5028 129.583 58.2735C130.002 58.0341 130.316 57.725 130.526 57.3461L131.393 57.8546C131.064 58.3832 130.615 58.802 130.047 59.1111C129.479 59.4203 128.83 59.5748 128.102 59.5748C126.926 59.5748 125.968 59.2059 125.23 58.4679C124.493 57.73 124.124 56.7926 124.124 55.6558C124.124 54.539 124.488 53.6066 125.216 52.8587C125.943 52.1108 126.881 51.7368 128.028 51.7368ZM128.028 52.6941C127.25 52.6941 126.597 52.9285 126.068 53.3972C125.55 53.8559 125.24 54.4542 125.141 55.1921H130.72C130.62 54.4043 130.316 53.7911 129.808 53.3523C129.299 52.9135 128.706 52.6941 128.028 52.6941ZM141.834 51.9163H142.821V59.3953H141.834V57.9294C141.146 59.0264 140.138 59.5748 138.812 59.5748C137.745 59.5748 136.833 59.1959 136.075 58.438C135.327 57.6801 134.953 56.7527 134.953 55.6558C134.953 54.5589 135.327 53.6315 136.075 52.8736C136.833 52.1158 137.745 51.7368 138.812 51.7368C140.138 51.7368 141.146 52.2853 141.834 53.3822V51.9163ZM136.793 57.7649C137.361 58.3333 138.059 58.6175 138.887 58.6175C139.715 58.6175 140.413 58.3333 140.981 57.7649C141.549 57.1865 141.834 56.4835 141.834 55.6558C141.834 54.8281 141.549 54.1301 140.981 53.5617C140.413 52.9833 139.715 52.6941 138.887 52.6941C138.059 52.6941 137.361 52.9833 136.793 53.5617C136.224 54.1301 135.94 54.8281 135.94 55.6558C135.94 56.4835 136.224 57.1865 136.793 57.7649ZM147.005 59.3953V48.476H147.992V59.3953H147.005ZM156.145 52.8736H153.991V57.4059C153.991 57.8148 154.071 58.1089 154.231 58.2884C154.39 58.458 154.63 58.5477 154.949 58.5577C155.268 58.5577 155.667 58.5477 156.145 58.5278V59.3953C155.098 59.5549 154.311 59.4801 153.782 59.171C153.263 58.8618 153.004 58.2735 153.004 57.4059V52.8736H151.434V51.9163H153.004V50.1213L153.991 49.8222V51.9163H156.145V52.8736ZM163.385 51.7368C164.293 51.7368 165.006 52.016 165.524 52.5745C166.053 53.1229 166.317 53.8658 166.317 54.8032V59.3953H165.33V54.8032C165.33 54.1351 165.15 53.6165 164.791 53.2476C164.442 52.8786 163.944 52.6941 163.295 52.6941C162.577 52.6941 161.994 52.9235 161.545 53.3822C161.097 53.8309 160.872 54.529 160.872 55.4763V59.3953H159.885V48.9247H160.872V53.083C161.431 52.1856 162.268 51.7368 163.385 51.7368ZM173.805 59.5748C172.678 59.5748 171.741 59.2009 170.993 58.453C170.245 57.6951 169.871 56.7627 169.871 55.6558C169.871 54.5489 170.245 53.6215 170.993 52.8736C171.741 52.1158 172.678 51.7368 173.805 51.7368C174.543 51.7368 175.206 51.9163 175.795 52.2753C176.383 52.6243 176.812 53.098 177.081 53.6963L176.273 54.16C176.074 53.7113 175.75 53.3573 175.301 53.098C174.862 52.8288 174.364 52.6941 173.805 52.6941C172.977 52.6941 172.279 52.9833 171.711 53.5617C171.143 54.1301 170.858 54.8281 170.858 55.6558C170.858 56.4835 171.143 57.1865 171.711 57.7649C172.279 58.3333 172.977 58.6175 173.805 58.6175C174.364 58.6175 174.862 58.4879 175.301 58.2286C175.74 57.9594 176.084 57.6004 176.333 57.1516L177.156 57.6303C176.847 58.2286 176.393 58.7023 175.795 59.0513C175.196 59.4003 174.533 59.5748 173.805 59.5748ZM187.026 51.9163H188.013V59.3953H187.026V57.9294C186.338 59.0264 185.331 59.5748 184.005 59.5748C182.938 59.5748 182.025 59.1959 181.267 58.438C180.519 57.6801 180.146 56.7527 180.146 55.6558C180.146 54.5589 180.519 53.6315 181.267 52.8736C182.025 52.1158 182.938 51.7368 184.005 51.7368C185.331 51.7368 186.338 52.2853 187.026 53.3822V51.9163ZM181.985 57.7649C182.554 58.3333 183.252 58.6175 184.079 58.6175C184.907 58.6175 185.605 58.3333 186.174 57.7649C186.742 57.1865 187.026 56.4835 187.026 55.6558C187.026 54.8281 186.742 54.1301 186.174 53.5617C185.605 52.9833 184.907 52.6941 184.079 52.6941C183.252 52.6941 182.554 52.9833 181.985 53.5617C181.417 54.1301 181.133 54.8281 181.133 55.6558C181.133 56.4835 181.417 57.1865 181.985 57.7649ZM193.185 53.1578C193.644 52.2504 194.431 51.7966 195.548 51.7966V52.754C194.87 52.754 194.307 52.9534 193.858 53.3523C193.409 53.7512 193.185 54.3794 193.185 55.237V59.3953H192.198V51.9163H193.185V53.1578ZM201.998 51.7368C203.105 51.7368 203.997 52.1307 204.675 52.9185C205.363 53.6963 205.708 54.6187 205.708 55.6857C205.708 55.7954 205.698 55.95 205.678 56.1494H199.111C199.211 56.9073 199.53 57.5106 200.068 57.9594C200.617 58.3981 201.29 58.6175 202.088 58.6175C202.656 58.6175 203.145 58.5028 203.554 58.2735C203.972 58.0341 204.287 57.725 204.496 57.3461L205.363 57.8546C205.034 58.3832 204.586 58.802 204.017 59.1111C203.449 59.4203 202.801 59.5748 202.073 59.5748C200.896 59.5748 199.939 59.2059 199.201 58.4679C198.463 57.73 198.094 56.7926 198.094 55.6558C198.094 54.539 198.458 53.6066 199.186 52.8587C199.914 52.1108 200.851 51.7368 201.998 51.7368ZM201.998 52.6941C201.22 52.6941 200.567 52.9285 200.038 53.3972C199.52 53.8559 199.211 54.4542 199.111 55.1921H204.69C204.591 54.4043 204.287 53.7911 203.778 53.3523C203.269 52.9135 202.676 52.6941 201.998 52.6941ZM219.095 48.9247C220.032 48.9247 220.815 49.2388 221.443 49.8671C222.071 50.4953 222.385 51.2781 222.385 52.2155C222.385 53.1528 222.071 53.9356 221.443 54.5639C220.815 55.1921 220.032 55.5062 219.095 55.5062H216.402V59.3953H215.355V48.9247H219.095ZM219.095 54.519C219.743 54.519 220.276 54.3046 220.695 53.8758C221.124 53.437 221.338 52.8836 221.338 52.2155C221.338 51.5473 221.124 50.9989 220.695 50.5701C220.276 50.1313 219.743 49.9119 219.095 49.9119H216.402V54.519H219.095ZM226.964 53.1578C227.423 52.2504 228.21 51.7966 229.327 51.7966V52.754C228.649 52.754 228.086 52.9534 227.637 53.3523C227.188 53.7512 226.964 54.3794 226.964 55.237V59.3953H225.977V51.9163H226.964V53.1578ZM238.589 58.453C237.831 59.2009 236.904 59.5748 235.807 59.5748C234.71 59.5748 233.777 59.2009 233.01 58.453C232.252 57.6951 231.873 56.7627 231.873 55.6558C231.873 54.5489 232.252 53.6215 233.01 52.8736C233.777 52.1158 234.71 51.7368 235.807 51.7368C236.904 51.7368 237.831 52.1158 238.589 52.8736C239.357 53.6215 239.741 54.5489 239.741 55.6558C239.741 56.7627 239.357 57.6951 238.589 58.453ZM233.713 57.7649C234.281 58.3333 234.979 58.6175 235.807 58.6175C236.634 58.6175 237.332 58.3333 237.901 57.7649C238.469 57.1865 238.754 56.4835 238.754 55.6558C238.754 54.8281 238.469 54.1301 237.901 53.5617C237.332 52.9833 236.634 52.6941 235.807 52.6941C234.979 52.6941 234.281 52.9833 233.713 53.5617C233.144 54.1301 232.86 54.8281 232.86 55.6558C232.86 56.4835 233.144 57.1865 233.713 57.7649ZM248.58 51.9163H249.627L246.56 59.3953H245.364L242.297 51.9163H243.344L245.962 58.3632L248.58 51.9163ZM253.916 50.1213C253.776 50.261 253.607 50.3308 253.408 50.3308C253.208 50.3308 253.039 50.261 252.899 50.1213C252.759 49.9817 252.69 49.8122 252.69 49.6128C252.69 49.4133 252.759 49.2438 252.899 49.1042C253.039 48.9646 253.208 48.8948 253.408 48.8948C253.607 48.8948 253.776 48.9646 253.916 49.1042C254.056 49.2438 254.126 49.4133 254.126 49.6128C254.126 49.8122 254.056 49.9817 253.916 50.1213ZM252.914 59.3953V51.9163H253.901V59.3953H252.914ZM264.522 48.9247H265.509V59.3953H264.522V57.9294C263.834 59.0264 262.827 59.5748 261.501 59.5748C260.434 59.5748 259.521 59.1959 258.763 58.438C258.015 57.6801 257.641 56.7527 257.641 55.6558C257.641 54.5589 258.015 53.6315 258.763 52.8736C259.521 52.1158 260.434 51.7368 261.501 51.7368C262.827 51.7368 263.834 52.2853 264.522 53.3822V48.9247ZM259.481 57.7649C260.05 58.3333 260.748 58.6175 261.575 58.6175C262.403 58.6175 263.101 58.3333 263.67 57.7649C264.238 57.1865 264.522 56.4835 264.522 55.6558C264.522 54.8281 264.238 54.1301 263.67 53.5617C263.101 52.9833 262.403 52.6941 261.575 52.6941C260.748 52.6941 260.05 52.9833 259.481 53.5617C258.913 54.1301 258.629 54.8281 258.629 55.6558C258.629 56.4835 258.913 57.1865 259.481 57.7649ZM273.149 51.7368C274.256 51.7368 275.149 52.1307 275.827 52.9185C276.515 53.6963 276.859 54.6187 276.859 55.6857C276.859 55.7954 276.849 55.95 276.829 56.1494H270.262C270.362 56.9073 270.681 57.5106 271.22 57.9594C271.768 58.3981 272.441 58.6175 273.239 58.6175C273.807 58.6175 274.296 58.5028 274.705 58.2735C275.124 58.0341 275.438 57.725 275.647 57.3461L276.515 57.8546C276.186 58.3832 275.737 58.802 275.168 59.1111C274.6 59.4203 273.952 59.5748 273.224 59.5748C272.047 59.5748 271.09 59.2059 270.352 58.4679C269.614 57.73 269.245 56.7926 269.245 55.6558C269.245 54.539 269.609 53.6066 270.337 52.8587C271.065 52.1108 272.002 51.7368 273.149 51.7368ZM273.149 52.6941C272.371 52.6941 271.718 52.9285 271.19 53.3972C270.671 53.8559 270.362 54.4542 270.262 55.1921H275.842C275.742 54.4043 275.438 53.7911 274.929 53.3523C274.421 52.9135 273.827 52.6941 273.149 52.6941ZM281.51 53.1578C281.969 52.2504 282.757 51.7966 283.874 51.7966V52.754C283.196 52.754 282.632 52.9534 282.184 53.3523C281.735 53.7512 281.51 54.3794 281.51 55.237V59.3953H280.523V51.9163H281.51V53.1578ZM287.807 53.8758C287.807 54.2149 287.956 54.4841 288.255 54.6835C288.554 54.883 288.918 55.0376 289.347 55.1472C289.776 55.2569 290.205 55.3816 290.634 55.5212C291.062 55.6508 291.426 55.8752 291.726 56.1943C292.025 56.5034 292.174 56.9123 292.174 57.4209C292.174 58.0591 291.92 58.5776 291.411 58.9765C290.913 59.3754 290.265 59.5748 289.467 59.5748C288.749 59.5748 288.136 59.4153 287.627 59.0962C287.128 58.7771 286.779 58.3632 286.58 57.8546L287.418 57.361C287.557 57.7499 287.807 58.0591 288.166 58.2884C288.534 58.5078 288.968 58.6175 289.467 58.6175C289.956 58.6175 290.364 58.5228 290.693 58.3333C291.023 58.1339 291.187 57.8297 291.187 57.4209C291.187 57.0818 291.037 56.8126 290.738 56.6131C290.439 56.4137 290.075 56.2591 289.646 56.1494C289.218 56.0397 288.789 55.9201 288.36 55.7904C287.931 55.6508 287.567 55.4265 287.268 55.1173C286.969 54.7982 286.819 54.3844 286.819 53.8758C286.819 53.2675 287.059 52.7589 287.537 52.3501C288.026 51.9412 288.639 51.7368 289.377 51.7368C289.985 51.7368 290.519 51.8764 290.978 52.1556C291.436 52.4249 291.775 52.7938 291.995 53.2625L291.172 53.7412C290.883 53.0431 290.285 52.6941 289.377 52.6941C288.948 52.6941 288.579 52.7988 288.27 53.0082C287.961 53.2077 287.807 53.4969 287.807 53.8758Z" fill="#1E336A"/>
<path d="M230.553 30.237C231.671 30.237 232.612 30.6134 233.376 31.3661C234.139 32.1189 234.521 33.0432 234.521 34.1391C234.521 35.235 234.139 36.1594 233.376 36.9121C232.612 37.6648 231.671 38.0412 230.553 38.0412H228.51V41.8603H226.219V30.237H230.553ZM230.553 35.8992C231.04 35.8992 231.444 35.7332 231.765 35.4011C232.086 35.0579 232.246 34.6373 232.246 34.1391C232.246 33.6299 232.086 33.2093 231.765 32.8772C231.444 32.5451 231.04 32.379 230.553 32.379H228.51V35.8992H230.553ZM243.22 41.8603L240.878 37.8254H239.135V41.8603H236.843V30.237H241.493C242.566 30.237 243.48 30.6134 244.232 31.3661C244.985 32.1189 245.362 33.0266 245.362 34.0893C245.362 34.8088 245.157 35.4786 244.747 36.0985C244.338 36.7073 243.795 37.1667 243.12 37.4767L245.694 41.8603H243.22ZM239.135 32.379V35.8162H241.493C241.924 35.8162 242.295 35.6502 242.605 35.3181C242.915 34.9749 243.07 34.5653 243.07 34.0893C243.07 33.6133 242.915 33.2093 242.605 32.8772C242.295 32.5451 241.924 32.379 241.493 32.379H239.135ZM257.524 40.3493C256.35 41.5116 254.922 42.0928 253.24 42.0928C251.557 42.0928 250.129 41.5116 248.956 40.3493C247.793 39.1759 247.212 37.7423 247.212 36.0487C247.212 34.355 247.793 32.927 248.956 31.7647C250.129 30.5913 251.557 30.0046 253.24 30.0046C254.922 30.0046 256.35 30.5913 257.524 31.7647C258.697 32.927 259.284 34.355 259.284 36.0487C259.284 37.7423 258.697 39.1759 257.524 40.3493ZM250.566 38.7884C251.286 39.4969 252.177 39.8511 253.24 39.8511C254.302 39.8511 255.193 39.4969 255.913 38.7884C256.632 38.0689 256.992 37.1556 256.992 36.0487C256.992 34.9417 256.632 34.0284 255.913 33.3089C255.193 32.5894 254.302 32.2296 253.24 32.2296C252.177 32.2296 251.286 32.5894 250.566 33.3089C249.847 34.0284 249.487 34.9417 249.487 36.0487C249.487 37.1556 249.847 38.0689 250.566 38.7884Z" fill="#00BBF2"/>
</svg>
